<svg xmlns="http://www.w3.org/2000/svg" width="112.5" viewBox="0 0 112.5 48.75" height="48.75" version="1.0"><defs><clipPath id="a"><path d="M 9 1.335938 L 61 1.335938 L 61 25 L 9 25 Z M 9 1.335938"/></clipPath><clipPath id="b"><path d="M 16 24 L 93.722656 24 L 93.722656 48 L 16 48 Z M 16 24"/></clipPath><clipPath id="c"><path d="M 74 33 L 86 33 L 86 48.5 L 74 48.5 Z M 74 33"/></clipPath></defs><g clip-path="url(#a)"><path fill="#DAA520" d="M 9.511719 24.976562 C 15.242188 22.832031 24.660156 20.730469 33.390625 20.488281 L 47.027344 5.707031 C 50.910156 11.769531 54.789062 17.832031 58.671875 23.890625 C 59.402344 24.039062 60.132812 24.183594 60.859375 24.328125 L 47.542969 3.886719 L 37.375 3.886719 L 37.375 8.691406 L 35.714844 8.691406 L 35.714844 1.355469 L 30.839844 1.355469 L 30.839844 3.886719 L 28.621094 3.886719 C 22.253906 10.917969 15.882812 17.945312 9.511719 24.976562 Z M 9.511719 24.976562" fill-rule="evenodd"/></g><path fill="#DAA520" d="M 47.015625 6.90625 L 57.382812 23.59375 L 55.308594 23.324219 L 45.957031 8.042969 Z M 47.015625 6.90625" fill-rule="evenodd"/><path fill="#DAA520" d="M 72.253906 12.441406 L 82.625 29.132812 L 80.546875 28.863281 L 71.195312 13.578125 Z M 72.253906 12.441406" fill-rule="evenodd"/><path fill="#DAA520" d="M 51.851562 8.691406 L 60.539062 22.449219 L 72.511719 11.113281 L 86.242188 32.699219 L 88.53125 33.714844 L 72.757812 8.691406 L 62.710938 8.691406 L 62.742188 12.695312 L 61.382812 12.695312 L 61.382812 3.886719 L 55.96875 3.886719 L 55.96875 8.691406 Z M 51.851562 8.691406" fill-rule="evenodd"/><path fill="#DAA520" d="M 12.238281 42.4375 C 5.765625 37.15625 6.921875 33.171875 13.226562 29.941406 C 24.03125 24.398438 35.972656 22.921875 48.226562 22.507812 C 34.226562 20.957031 20.792969 21.71875 7.957031 27.109375 C 0.46875 30.253906 0.03125 38.121094 12.238281 42.4375 Z M 12.238281 42.4375" fill-rule="evenodd"/><g clip-path="url(#b)"><path fill="#DAA520" d="M 37.015625 47.890625 C 20.71875 45.902344 19.503906 36.089844 33.546875 31.496094 C 52.050781 25.4375 72.789062 30.539062 93.738281 37.507812 C 70.078125 26.355469 46.980469 18.332031 24.085938 29.519531 C 10.777344 36.023438 14.300781 48.539062 37.015625 47.890625 Z M 37.015625 47.890625" fill-rule="evenodd"/></g><path fill="#DAA520" d="M 42.457031 12.347656 L 42.933594 15.863281 L 45.050781 16.226562 L 44.574219 12.710938 Z M 45.621094 12.890625 L 46.097656 16.40625 L 48.214844 16.773438 L 47.738281 13.253906 Z M 45.214844 17.445312 L 43.097656 17.078125 L 43.574219 20.597656 L 45.691406 20.960938 Z M 48.378906 17.988281 L 46.261719 17.625 L 46.738281 21.140625 L 48.855469 21.503906 Z M 48.378906 17.988281" fill-rule="evenodd"/><path fill="#DAA520" d="M 68.464844 18.351562 L 68.917969 21.699219 L 70.976562 22.347656 L 70.523438 19 Z M 71.539062 19.324219 L 71.992188 22.667969 L 74.050781 23.320312 L 73.597656 19.972656 Z M 74.207031 24.480469 L 72.148438 23.828125 L 72.601562 27.175781 L 74.660156 27.828125 Z M 71.132812 23.507812 L 69.078125 22.855469 L 69.53125 26.203125 L 71.585938 26.855469 Z M 71.132812 23.507812" fill-rule="evenodd"/><g fill="#DAA520"><g><g><path d="M 9.511719 -1.835938 L 6.261719 -10.652344 L 5.085938 -10.652344 L 1.992188 -1.683594 C 1.71875 -0.902344 1.292969 -0.5625 0.171875 -0.476562 L 0.171875 0 C 1.414062 -0.0507812 2.875 -0.0507812 4.132812 0 L 4.132812 -0.476562 C 3.027344 -0.5625 2.363281 -0.78125 2.585938 -1.429688 L 3.265625 -3.453125 L 6.839844 -3.453125 L 7.554688 -1.496094 C 7.808594 -0.816406 7.671875 -0.5625 6.53125 -0.476562 L 6.53125 0 C 8.0625 -0.0507812 9.648438 -0.0507812 11.179688 0 L 11.179688 -0.476562 C 9.988281 -0.5625 9.832031 -0.96875 9.511719 -1.835938 Z M 3.453125 -4.015625 L 4.96875 -8.574219 L 6.636719 -4.015625 Z M 3.453125 -4.015625" transform="translate(27.253 44.53)"/></g></g></g><g fill="#DAA520"><g><g><path d="M 8.046875 -2.789062 L 7.453125 -1.667969 C 7.007812 -0.867188 6.5 -0.5625 5.222656 -0.5625 L 4.289062 -0.5625 C 3.777344 -0.5625 3.675781 -0.730469 3.675781 -1.328125 L 3.675781 -9.238281 C 3.675781 -9.832031 4 -10.019531 4.898438 -10.089844 L 4.898438 -10.566406 C 3.4375 -10.515625 1.886719 -10.515625 0.425781 -10.566406 L 0.425781 -10.089844 C 1.34375 -10.019531 1.667969 -9.832031 1.667969 -9.238281 L 1.667969 -1.328125 C 1.667969 -0.730469 1.378906 -0.542969 0.460938 -0.476562 L 0.460938 0 C 3.011719 -0.0507812 5.359375 -0.0507812 8.011719 0 C 8.0625 -0.917969 8.199219 -1.804688 8.539062 -2.789062 Z M 8.046875 -2.789062" transform="translate(38.595 44.53)"/></g></g></g><g fill="#DAA520"><g><g><path d="M 10.941406 -10.089844 L 10.941406 -10.566406 C 9.476562 -10.515625 7.929688 -10.515625 6.464844 -10.566406 L 6.464844 -10.089844 C 7.382812 -10.019531 7.707031 -9.832031 7.707031 -9.238281 L 7.707031 -5.582031 L 3.675781 -5.582031 L 3.675781 -9.238281 C 3.675781 -9.832031 4 -10.019531 4.898438 -10.089844 L 4.898438 -10.566406 C 3.4375 -10.515625 1.886719 -10.515625 0.425781 -10.566406 L 0.425781 -10.089844 C 1.34375 -10.019531 1.667969 -9.832031 1.667969 -9.238281 L 1.667969 -1.328125 C 1.667969 -0.730469 1.34375 -0.542969 0.425781 -0.476562 L 0.425781 0 C 1.886719 -0.0507812 3.4375 -0.0507812 4.898438 0 L 4.898438 -0.476562 C 4 -0.542969 3.675781 -0.730469 3.675781 -1.328125 L 3.675781 -5 L 7.707031 -5 L 7.707031 -1.328125 C 7.707031 -0.730469 7.382812 -0.542969 6.464844 -0.476562 L 6.464844 0 C 7.929688 -0.0507812 9.476562 -0.0507812 10.941406 0 L 10.941406 -0.476562 C 10.039062 -0.542969 9.714844 -0.730469 9.714844 -1.328125 L 9.714844 -9.238281 C 9.714844 -9.832031 10.039062 -10.019531 10.941406 -10.089844 Z M 10.941406 -10.089844" transform="translate(51.211 44.53)"/></g></g></g><g fill="#DAA520"><g><g><path d="M 9.511719 -1.835938 L 6.261719 -10.652344 L 5.085938 -10.652344 L 1.992188 -1.683594 C 1.71875 -0.902344 1.292969 -0.5625 0.171875 -0.476562 L 0.171875 0 C 1.414062 -0.0507812 2.875 -0.0507812 4.132812 0 L 4.132812 -0.476562 C 3.027344 -0.5625 2.363281 -0.78125 2.585938 -1.429688 L 3.265625 -3.453125 L 6.839844 -3.453125 L 7.554688 -1.496094 C 7.808594 -0.816406 7.671875 -0.5625 6.53125 -0.476562 L 6.53125 0 C 8.0625 -0.0507812 9.648438 -0.0507812 11.179688 0 L 11.179688 -0.476562 C 9.988281 -0.5625 9.832031 -0.96875 9.511719 -1.835938 Z M 3.453125 -4.015625 L 4.96875 -8.574219 L 6.636719 -4.015625 Z M 3.453125 -4.015625" transform="translate(62.57 44.53)"/></g></g></g><g clip-path="url(#c)"><g fill="#DAA520"><g><g><path d="M 10.546875 0.96875 C 10.480469 1.464844 9.902344 1.972656 8.964844 1.972656 C 7.773438 1.972656 6.738281 1.105469 5.273438 1.105469 C 4.527344 1.105469 3.894531 1.328125 3.4375 1.546875 C 4.457031 0.714844 6.414062 0.511719 7.945312 -0.460938 C 9.425781 -1.359375 10.328125 -3.128906 10.328125 -5.257812 C 10.328125 -8.523438 8.300781 -10.835938 5.445312 -10.835938 C 2.585938 -10.835938 0.59375 -8.472656 0.59375 -5.34375 C 0.59375 -2.074219 2.621094 0.238281 5.496094 0.238281 C 3.675781 0.648438 1.957031 1.582031 1.53125 2.398438 L 3.234375 2.398438 C 3.402344 2.074219 4.015625 1.597656 4.832031 1.597656 C 6.550781 1.597656 6.957031 3.574219 8.933594 3.574219 C 10.378906 3.574219 11.332031 2.519531 11.332031 0.96875 Z M 2.722656 -5.820312 C 2.722656 -9 3.863281 -10.226562 5.171875 -10.226562 C 6.976562 -10.226562 8.199219 -7.910156 8.199219 -4.796875 C 8.199219 -1.617188 7.0625 -0.375 5.714844 -0.375 C 3.945312 -0.375 2.722656 -2.707031 2.722656 -5.820312 Z M 2.722656 -5.820312" transform="translate(73.912 44.53)"/></g></g></g></g></svg>